# xmcd
# 
# Track frame offsets:
#     150
#     24701
#     52410
#     82926
#     107362
#     141952
#     164812
#     190232
#     219227
#     234568
#     261539
#     288323
# 
# Disc length: 4134
# 
# Revision: 0
# Processed by: cddbd v1.5.2PL0 Copyright (c) Steve Scherf et al.
# Submitted via: fre:ac v1.0.31
# 
DISCID=b410240c
DTITLE=Blue Stuff - -7
DYEAR=2018
DGENRE=Blues
TTITLE0=John Dillinger
TTITLE1=Vittorio
TTITLE2=Ci vuole il cappello
TTITLE3=Sono stanco
TTITLE4=Sonny Boy
TTITLE5=Troppo povero per morire
TTITLE6=Levon
TTITLE7=Napoli addio
TTITLE8=Siamo fuori
TTITLE9=Guzzi Falcone
TTITLE10=Rubi
TTITLE11=Lei
EXTD=
EXTT0=
EXTT1=
EXTT2=
EXTT3=
EXTT4=
EXTT5=
EXTT6=
EXTT7=
EXTT8=
EXTT9=
EXTT10=
EXTT11=
PLAYORDER=
